<svg xmlns="http://www.w3.org/2000/svg" width="1200" height="720" viewBox="0 0 1200 720" role="img" aria-labelledby="title desc">
  <title id="title">Vista movil</title>
  <desc id="desc">Mockup abstracto para el flujo mobile</desc>
  <defs>
    <linearGradient id="bg" x1="0%" y1="0%" x2="100%" y2="100%">
      <stop offset="0%" stop-color="#0f172a" />
      <stop offset="50%" stop-color="#1e293b" />
      <stop offset="100%" stop-color="#312e81" />
    </linearGradient>
    <linearGradient id="device" x1="0%" y1="0%" x2="100%" y2="100%">
      <stop offset="0%" stop-color="#38bdf8" />
      <stop offset="100%" stop-color="#a855f7" />
    </linearGradient>
  </defs>
  <rect width="1200" height="720" rx="40" fill="url(#bg)" />
  <g transform="translate(380 80)">
    <rect width="280" height="560" rx="48" fill="#0b1120" stroke="#1f2937" stroke-width="8" />
    <rect x="18" y="64" width="244" height="408" rx="28" fill="#111c33" />
    <rect x="118" y="16" width="44" height="6" rx="3" fill="#1f2937" />
    <circle cx="140" cy="520" r="24" fill="#1f2937" />
    <rect x="48" y="104" width="180" height="46" rx="16" fill="#1e293b" />
    <rect x="48" y="168" width="180" height="126" rx="20" fill="#1e293b" opacity="0.8" />
    <rect x="48" y="310" width="180" height="46" rx="16" fill="#1e293b" opacity="0.6" />
    <rect x="48" y="372" width="180" height="80" rx="24" fill="#1e293b" opacity="0.4" />
  </g>
  <g transform="translate(660 120)">
    <rect width="180" height="480" rx="40" fill="#0b1120" stroke="#1f2937" stroke-width="6" />
    <rect x="20" y="52" width="140" height="320" rx="22" fill="#111c33" />
    <rect x="40" y="88" width="100" height="44" rx="12" fill="#1e293b" />
    <rect x="40" y="148" width="100" height="120" rx="16" fill="#1e293b" opacity="0.7" />
    <rect x="40" y="282" width="100" height="40" rx="12" fill="#1e293b" opacity="0.5" />
    <rect x="40" y="336" width="100" height="44" rx="12" fill="#1e293b" opacity="0.35" />
  </g>
  <g fill="#e0f2fe" font-family="'Inter', 'Segoe UI', sans-serif" text-anchor="middle">
    <text x="600" y="76" font-size="52" font-weight="700">Mockup - Flujo movil</text>
    <text x="600" y="128" font-size="24" fill="#bfdbfe">Demuestra tu version responsive aqui</text>
  </g>
  <rect x="820" y="540" width="240" height="64" rx="24" fill="url(#device)" opacity="0.85" />
  <text x="940" y="580" font-size="24" font-family="'Inter', 'Segoe UI', sans-serif" fill="#0f172a" text-anchor="middle">CTA o accion</text>
</svg>
